<?xml version="1.0" encoding="iso-8859-1"?>
<!-- Generator: Adobe Illustrator 21.0.0, SVG Export Plug-In . SVG Version: 6.00 Build 0)  -->
<svg version="1.1" id="Capa_1" xmlns="http://www.w3.org/2000/svg" xmlns:xlink="http://www.w3.org/1999/xlink" x="0px" y="0px"
	 viewBox="0 0 512 512" style="enable-background:new 0 0 512 512;" xml:space="preserve">
<path style="fill:#F38F6D;" d="M432.344,159.812H328.141v160.313H7.515v80.157h496.971V312.11c0-10.35-6.623-19.54-16.443-22.813
	l-31.651-10.551v-94.887C456.391,170.578,445.625,159.812,432.344,159.812z"/>
<rect x="7.515" y="376.235" style="fill:#F07448;" width="496.971" height="24.047"/>
<polygon style="fill:#A0A3AD;" points="424.329,279.6 424.329,191.875 360.204,191.875 360.204,280.047 "/>
<polygon style="fill:#8D919D;" points="424.329,219.93 364.239,280.019 424.329,279.6 "/>
<circle style="fill:#A0A3AD;" cx="416.313" cy="408.297" r="56.11"/>
<circle style="fill:#ECEDEF;" cx="416.313" cy="408.297" r="24.047"/>
<circle style="fill:#A0A3AD;" cx="111.718" cy="408.297" r="56.11"/>
<circle style="fill:#ECEDEF;" cx="111.718" cy="408.297" r="24.047"/>
<rect x="55.609" y="47.593" style="fill:#FFE07E;" width="272.532" height="272.532"/>
<rect x="55.609" y="47.593" style="fill:#FFD653;" width="24.047" height="272.532"/>
<polygon style="fill:#EBB645;" points="167.828,103.703 191.875,95.687 215.922,103.703 215.922,47.593 167.828,47.593 "/>
<rect x="55.609" y="175.843" style="fill:#F6F6F7;" width="128.25" height="32.063"/>
<rect x="55.609" y="175.843" style="fill:#D9DADE;" width="24.047" height="32.063"/>
<circle style="fill:#F6F6F7;" cx="488.454" cy="336.157" r="16.031"/>
<path d="M183.859,136.266h-16.031c-4.15,0-7.515,3.365-7.515,7.515s3.365,7.515,7.515,7.515h16.031c4.15,0,7.515-3.365,7.515-7.515
	S188.009,136.266,183.859,136.266z"/>
<path d="M490.42,282.167l-26.514-8.837v-89.471c0-17.403-14.159-31.562-31.562-31.562h-96.689V47.593
	c0-4.15-3.364-7.515-7.515-7.515H55.609c-4.15,0-7.515,3.365-7.515,7.515v265.018H7.515c-4.15,0-7.515,3.365-7.515,7.515v80.157
	c0,4.15,3.365,7.515,7.515,7.515h40.592c-0.001,0.167-0.013,0.333-0.013,0.501c0,35.083,28.542,63.624,63.624,63.624
	s63.624-28.542,63.624-63.624c0-0.168-0.011-0.334-0.013-0.501h40.926c4.15,0,7.515-3.365,7.515-7.515s-3.365-7.515-7.515-7.515
	h-42.838c-6.951-27.599-31.972-48.094-61.699-48.094s-54.749,20.495-61.7,48.094H15.029V327.64h305.597v65.127h-68.634
	c-4.15,0-7.515,3.365-7.515,7.515s3.365,7.515,7.515,7.515h100.71c-0.001,0.167-0.013,0.333-0.013,0.501
	c0,35.083,28.542,63.624,63.624,63.624s63.624-28.542,63.624-63.624c0-0.168-0.011-0.334-0.013-0.501h24.561
	c4.151,0,7.515-3.365,7.515-7.515V312.11C512,298.503,503.328,286.471,490.42,282.167z M111.718,359.703
	c26.795,0,48.595,21.8,48.595,48.595s-21.8,48.595-48.595,48.595s-48.595-21.8-48.595-48.595S84.923,359.703,111.718,359.703z
	 M208.407,55.108v38.169l-14.156-4.718c-1.534-0.511-3.218-0.511-4.752,0l-14.157,4.718V55.108H208.407z M63.123,183.358h113.221
	v17.033H63.123V183.358z M63.123,215.421h120.736c4.15,0,7.515-3.365,7.515-7.515v-32.063c0-4.15-3.365-7.515-7.515-7.515H63.123
	v-17.033h80.658c4.15,0,7.515-3.365,7.515-7.515s-3.365-7.515-7.515-7.515H63.123V55.108h97.19v48.595
	c0,5.041,5.101,8.724,9.891,7.129l21.67-7.223l21.67,7.223c4.791,1.598,9.891-2.092,9.891-7.129V55.108h97.19v257.503H271.53
	v-30.452l11.218,11.219c3.057,3.056,8.217,2.851,11.028-0.431c2.518-2.941,2.337-7.461-0.399-10.196l-24.047-24.047
	c-2.936-2.935-7.693-2.935-10.628,0l-24.047,24.047c-2.935,2.935-2.935,7.693,0,10.627c2.935,2.935,7.693,2.935,10.627,0
	l11.219-11.22v30.453h-57.112v-30.453l11.219,11.219c3.057,3.057,8.216,2.851,11.027-0.431c2.519-2.941,2.337-7.461-0.4-10.196
	l-24.047-24.047c-2.935-2.935-7.693-2.935-10.627,0l-24.047,24.047c-2.935,2.935-2.935,7.693,0,10.627
	c2.935,2.935,7.693,2.935,10.627,0l11.219-11.219v30.453h-57.112v-30.453l11.219,11.219c3.057,3.057,8.216,2.851,11.027-0.431
	c2.519-2.941,2.337-7.461-0.4-10.196l-24.047-24.047c-2.935-2.935-7.693-2.935-10.627,0l-24.047,24.047
	c-2.935,2.935-2.935,7.693,0,10.627c2.935,2.935,7.693,2.935,10.627,0l11.219-11.219v30.453H63.123V215.421z M416.313,456.892
	c-26.795,0-48.595-21.8-48.595-48.595s21.8-48.595,48.595-48.595s48.595,21.8,48.595,48.595S443.108,456.892,416.313,456.892z
	 M478.013,392.767c-6.951-27.599-31.973-48.094-61.7-48.094c-29.726,0-54.749,20.495-61.7,48.094h-18.958v-225.44h96.689
	c9.117,0,16.532,7.416,16.532,16.532v94.887c0,3.234,2.069,6.106,5.138,7.129l31.652,10.551c6.761,2.254,11.304,8.557,11.304,15.684
	v2.101c-2.643-1.029-5.514-1.6-8.517-1.6c-12.983,0-23.546,10.563-23.546,23.546s10.563,23.546,23.546,23.546
	c3.003,0,5.873-0.571,8.517-1.6v34.665H478.013z M496.971,336.157c0,4.696-3.82,8.517-8.517,8.517c-4.696,0-8.517-3.82-8.517-8.517
	c0-4.696,3.82-8.517,8.517-8.517C493.15,327.64,496.971,331.46,496.971,336.157z"/>
<path d="M424.329,184.36h-64.125c-4.151,0-7.515,3.365-7.515,7.515v88.172c0,4.134,3.456,7.515,7.568,7.515l64.125-0.447
	c4.129-0.029,7.462-3.385,7.462-7.515v-87.725C431.843,187.725,428.48,184.36,424.329,184.36z M416.814,272.138l-49.096,0.343
	v-73.091h49.096V272.138z"/>
<path d="M384.25,296.579h-24.047c-4.151,0-7.515,3.365-7.515,7.515s3.364,7.515,7.515,7.515h24.047c4.151,0,7.515-3.365,7.515-7.515
	S388.402,296.579,384.25,296.579z"/>
<path d="M416.313,376.736c-17.403,0-31.562,14.159-31.562,31.562s14.159,31.562,31.562,31.562s31.562-14.159,31.562-31.562
	S433.716,376.736,416.313,376.736z M416.313,424.83c-9.116,0-16.532-7.417-16.532-16.532s7.417-16.532,16.532-16.532
	s16.532,7.417,16.532,16.532S425.429,424.83,416.313,424.83z"/>
<path d="M111.718,439.859c17.403,0,31.562-14.159,31.562-31.562s-14.159-31.562-31.562-31.562s-31.562,14.159-31.562,31.562
	S94.315,439.859,111.718,439.859z M111.718,391.765c9.116,0,16.532,7.417,16.532,16.532s-7.416,16.532-16.532,16.532
	s-16.532-7.417-16.532-16.532S102.602,391.765,111.718,391.765z"/>
<path d="M296.078,367.718c4.151,0,7.515-3.365,7.515-7.515s-3.364-7.515-7.515-7.515h-48.094h-72.141
	c-4.15,0-7.515,3.365-7.515,7.515s3.365,7.515,7.515,7.515h72.141H296.078z"/>
<g>
</g>
<g>
</g>
<g>
</g>
<g>
</g>
<g>
</g>
<g>
</g>
<g>
</g>
<g>
</g>
<g>
</g>
<g>
</g>
<g>
</g>
<g>
</g>
<g>
</g>
<g>
</g>
<g>
</g>
</svg>
