<svg height="512pt" viewBox="0 0 512 512" width="512pt" xmlns="http://www.w3.org/2000/svg"><path d="m196 0h301c8.285156 0 15 6.714844 15 15v241c0 8.285156-6.714844 15-15 15h-301c-8.285156 0-15-6.714844-15-15v-241c0-8.285156 6.714844-15 15-15zm0 0" fill="#523522"/><path d="m211 30h270v211h-270zm0 0" fill="#e0f4ff"/><path d="m239.417969 159.289062c-3.707031-7.410156-.703125-16.417968 6.710937-20.125l153.160156-76.582031c7.429688-3.660156 16.40625-.703125 20.128907 6.707031 3.707031 7.414063.703125 16.421876-6.707031 20.128907l-153.164063 76.582031c-7.488281 3.71875-16.441406.644531-20.128906-6.710938zm0 0" fill="#714c2f"/><path d="m241 121h-180c-33.136719 0-61 26.863281-61 60v316c0 8.285156 7.714844 15 16 15h45l60-61v-270h120c16.539062 0 30-13.460938 30-30s-13.460938-30-30-30zm0 0" fill="#5bc980"/><path d="m76 121c-24.8125 0-45-20.1875-45-45s20.1875-46 45-46 45 21.1875 45 46-20.1875 45-45 45zm0 0" fill="#ffb99c"/><path d="m481 346c0 24.898438-20.097656 45-45 45s-45-20.101562-45-45c0-24.902344 20.097656-45 45-45s45 20.097656 45 45zm0 0" fill="#895d3c"/><path d="m512 466v31c0 8.398438-6.597656 15-15 15h-136l-30-24.300781 30-21.699219c0-41.398438 33.601562-75 75-75 20.699219 0 40.601562 8.398438 54.101562 21.898438 13.496094 13.5 21.898438 32.402343 21.898438 53.101562zm0 0" fill="#ff7cb9"/><path d="m436 391v-90c24.902344 0 45 20.097656 45 45 0 24.898438-20.097656 45-45 45zm0 0" fill="#714c2f"/><path d="m512 466v31c0 8.398438-6.597656 15-15 15h-61v-121c20.699219 0 40.601562 8.398438 54.101562 21.898438 13.496094 13.5 21.898438 32.402343 21.898438 53.101562zm0 0" fill="#fa5e97"/><path d="m331 346c0 24.898438-20.097656 45-45 45s-45-20.101562-45-45c0-24.902344 20.097656-45 45-45s45 20.097656 45 45zm0 0" fill="#895d3c"/><path d="m361 466v46h-150l-30-25.199219 30-20.800781c0-41.398438 33.601562-75 75-75 20.699219 0 39.601562 8.398438 53.101562 21.898438 13.496094 13.5 21.898438 32.402343 21.898438 53.101562zm0 0" fill="#ff7cb9"/><path d="m286 391v-90c24.902344 0 45 20.097656 45 45 0 24.898438-20.097656 45-45 45zm0 0" fill="#714c2f"/><path d="m361 466v46h-75v-121c20.699219 0 39.601562 8.398438 53.101562 21.898438 13.496094 13.5 21.898438 32.402343 21.898438 53.101562zm0 0" fill="#fa5e97"/><path d="m181 346c0 24.898438-20.097656 45-45 45s-45-20.101562-45-45c0-24.902344 20.097656-45 45-45s45 20.097656 45 45zm0 0" fill="#895d3c"/><path d="m211 466v46h-150v-46c0-41.398438 33.601562-75 75-75 20.699219 0 39.601562 8.398438 53.101562 21.898438 13.496094 13.5 21.898438 32.402343 21.898438 53.101562zm0 0" fill="#ff7cb9"/><path d="m136 391v-90c24.902344 0 45 20.097656 45 45 0 24.898438-20.097656 45-45 45zm0 0" fill="#714c2f"/><path d="m211 466v46h-75v-121c20.699219 0 39.601562 8.398438 53.101562 21.898438 13.496094 13.5 21.898438 32.402343 21.898438 53.101562zm0 0" fill="#fa5e97"/></svg>