<svg height="512pt" viewBox="-26 0 512 512" width="512pt" xmlns="http://www.w3.org/2000/svg"><path d="m113.066406 405.574219c-5.214844-6.441407-9.292968-17.335938-9.292968-25.214844v-32.894531l-7.214844-7.226563c-2.847656-2.855469-4.417969-6.664062-4.417969-10.730469 0-4.0625 1.570313-7.875 4.417969-10.730468l7.214844-7.226563v-66.984375c0-8.445312-6.863282-15.316406-15.296876-15.316406h-8.867187v125.851562c0 6.710938 2.957031 15.597657 7.054687 22.066407zm0 0" fill="#f7c39f"/><path d="m86.664062 377.171875-20.125-21.648437c-5.761718-6.203126-10.449218-18.136719-10.449218-26.609376v-124.917968h8.21875c8.4375 0 15.300781 6.867187 15.300781 15.3125v135.792968c0 6.710938 2.957031 15.597657 7.054687 22.070313zm0 0" fill="#ffd5b3"/><path d="m210.039062 439.398438v-45.789063c0-8.363281-4.804687-19.984375-10.710937-25.898437l-65.097656-65.199219c-2.851563-2.851563-6.65625-4.425781-10.714844-4.425781-4.054687 0-7.863281 1.570312-10.710937 4.425781l-16.246094 16.269531c-2.847656 2.855469-4.417969 6.664062-4.417969 10.730469 0 4.0625 1.570313 7.875 4.417969 10.726562l43.230468 43.296875c1.917969 1.917969 2.996094 4.523438 2.996094 7.238282v18.011718c0 5.65625-4.582031 10.242188-10.230468 10.242188h-2.53125c-2.84375 0-5.554688-1.183594-7.488282-3.265625l-55.996094-60.238281c-5.761718-6.203126-10.449218-18.136719-10.449218-26.605469v-136.1875c0-8.46875-6.882813-15.359375-15.34375-15.359375h-17.902344c-8.460938 0-15.34375 6.890625-15.34375 15.359375v174.074219c0 8.46875 4.742188 20.351562 10.570312 26.488281l43.785157 46.101562h148.183593zm0 0" fill="#ffb98a"/><path d="m345.9375 405.574219 26.402344-28.402344c4.097656-6.472656 7.054687-15.359375 7.054687-22.070313v-125.847656h-8.863281c-8.4375 0-15.300781 6.867188-15.300781 15.3125v135.792969c0 7.878906-4.078125 18.773437-9.292969 25.214844zm0 0" fill="#f7c39f"/><path d="m372.339844 377.171875 20.125-21.648437c5.765625-6.203126 10.453125-18.136719 10.453125-26.609376v-124.917968h-8.222657c-8.433593 0-15.300781 6.867187-15.300781 15.3125v135.792968c.003907 6.710938-2.957031 15.597657-7.054687 22.070313zm0 0" fill="#ffd5b3"/><path d="m436.160156 177.371094h-17.898437c-8.460938 0-15.34375 6.890625-15.34375 15.359375v136.183593c0 8.472657-4.691407 20.40625-10.453125 26.609376l-55.992188 60.238281c-1.9375 2.082031-4.648437 3.261719-7.488281 3.261719h-2.535156c-5.648438 0-10.226563-4.582032-10.226563-10.238282v-18.011718c0-2.714844 1.074219-5.320313 2.996094-7.238282l43.226562-43.296875c2.851563-2.851562 4.417969-6.664062 4.417969-10.730469 0-4.0625-1.566406-7.875-4.417969-10.726562l-16.242187-16.269531c-2.851563-2.855469-6.65625-4.425781-10.710937-4.425781-4.0625 0-7.863282 1.570312-10.714844 4.425781l-65.097656 65.199219c-5.90625 5.914062-10.710938 17.53125-10.710938 25.898437v45.785156h148.183594l43.78125-46.101562c5.832031-6.136719 10.574218-18.023438 10.574218-26.488281v-174.074219c0-8.46875-6.886718-15.359375-15.347656-15.359375zm0 0" fill="#ffb98a"/><path d="m229.503906 499.5c0 2.75-2.25 5-5 5h-181.027344c-2.75 0-5-2.25-5-5v-55.101562c0-2.75 2.25-5 5-5h181.027344c2.75 0 5 2.25 5 5zm0 0" fill="#1dd9dd"/><path d="m229.503906 499.5c0 2.75 2.25 5 5 5h181.027344c2.75 0 5-2.25 5-5v-55.101562c0-2.75-2.25-5-5-5h-181.027344c-2.75 0-5 2.25-5 5zm0 0" fill="#1dd9dd"/><path d="m229.503906 273.9375c-4.03125 0-8.066406-1.515625-11.152344-4.554688l-132.089843-130.386718c-30.421875-30.035156-30.421875-78.898438 0-108.9375 14.738281-14.542969 34.335937-22.558594 55.183593-22.558594 20.839844 0 40.4375 8.015625 55.171876 22.558594l32.886718 32.460937 32.886719-32.457031c14.742187-14.546875 34.328125-22.5625 55.171875-22.5625s40.441406 8.015625 55.179688 22.558594c30.425781 30.039062 30.425781 78.902344 0 108.9375l-132.09375 130.386718c-3.078126 3.039063-7.121094 4.554688-11.144532 4.554688zm0 0" fill="#fb8276"/><path d="m436.160156 169.871094h-17.898437c-12.597657 0-22.84375 10.257812-22.84375 22.859375v3.765625h-.722657c-12.570312 0-22.800781 10.234375-22.800781 22.8125v2.441406h-1.363281c-12.574219 0-22.800781 10.234375-22.800781 22.816406v49.609375c-3.613281-2.328125-7.824219-3.589843-12.242188-3.589843-6.0625 0-11.753906 2.351562-16.019531 6.625l-65.097656 65.195312c-7.359375 7.371094-12.90625 20.78125-12.90625 31.199219v38.289062h-6.960938c-1.777344 0-3.46875.378907-5 1.050781-1.535156-.671874-3.222656-1.050781-5-1.050781h-6.964844v-38.289062c0-10.417969-5.546874-23.828125-12.902343-31.199219l-21.679688-21.707031c-2.925781-2.933594-7.675781-2.9375-10.605469-.011719-2.929687 2.929688-2.9375 7.675781-.007812 10.609375l21.675781 21.710937c4.539063 4.542969 8.519531 14.171876 8.519531 20.601563v38.285156h-137.460937l-41.570313-43.769531c-4.53125-4.769531-8.507812-14.734375-8.507812-21.324219v-174.070312c0-4.332031 3.519531-7.859375 7.84375-7.859375h17.902344c4.324218 0 7.84375 3.527344 7.84375 7.859375v136.183593c0 10.4375 5.355468 24.070313 12.457031 31.714844l55.996094 60.238282c3.34375 3.597656 8.074219 5.65625 12.980469 5.65625h2.53125c9.773437 0 17.730468-7.957032 17.730468-17.738282v-18.015625c0-4.738281-1.84375-9.191406-5.1875-12.535156l-43.234375-43.296875c-1.433593-1.433594-2.222656-3.363281-2.222656-5.429688 0-2.0625.789063-3.992187 2.226563-5.429687l16.246093-16.269531c1.429688-1.4375 3.347657-2.222656 5.402344-2.222656 2.050781 0 3.972656.789062 5.40625 2.222656l18.457031 18.488281c2.925782 2.929687 7.675782 2.933594 10.605469.007813 2.933594-2.925782 2.9375-7.675782.011719-10.609376l-18.460938-18.484374c-4.265625-4.273438-9.957031-6.625-16.019531-6.625-4.417969 0-8.628906 1.261718-12.242187 3.589843v-49.609375c0-12.582031-10.226563-22.816406-22.800782-22.816406h-1.363281v-2.441406c0-12.578125-10.230469-22.8125-22.800781-22.8125h-.722656v-3.765625c0-12.601563-10.246094-22.859375-22.84375-22.859375h-17.898438c-12.597656 0-22.84375 10.257812-22.84375 22.859375v174.074219c0 10.464843 5.433594 24.074218 12.632812 31.652343l31.757813 33.4375h-.914063c-6.894531 0-12.5 5.609375-12.5 12.5v55.105469c0 6.894531 5.605469 12.5 12.5 12.5h372.054688c6.894531 0 12.5-5.605469 12.5-12.5v-55.101562c0-6.894532-5.605469-12.5-12.5-12.5h-.914062l31.753906-33.4375c7.203125-7.582032 12.636718-21.191407 12.636718-31.65625v-174.074219c0-12.601563-10.25-22.859375-22.847656-22.859375zm-324.882812 195.71875 23.207031 23.246094c.511719.507812.800781 1.214843.800781 1.9375v18.011718c0 1.511719-1.222656 2.738282-2.730468 2.738282h-2.53125c-.753907 0-1.480469-.316407-1.996094-.867188l-9.230469-9.933594c-4.152344-5.210937-7.519531-14.300781-7.519531-20.363281zm-24.167969-128.835938h1.367187c4.300782 0 7.796876 3.503906 7.796876 7.8125v63.882813l-5.019532 5.03125c-1.699218 1.703125-3.082031 3.636719-4.144531 5.726562zm0 103.054688c1.0625 2.089844 2.441406 4.027344 4.144531 5.726562l5.019532 5.03125v25.929688l-3.59375-3.871094c-3.246094-5.347656-5.570313-12.613281-5.570313-17.523438zm-23.519531-128.3125h.71875c4.300781 0 7.800781 3.503906 7.800781 7.8125v131.1875l-.074219-.082032c-4.5-4.839843-8.445312-14.886718-8.445312-21.5zm158.414062 285.503906h-176.027344v-50.101562h176.027344zm164.894532-277.6875c0-4.308594 3.496093-7.816406 7.796874-7.816406h.722657v117.421875c0 6.609375-3.945313 16.65625-8.445313 21.496093l-.074218.082032zm-24.167969 25.253906c0-4.308594 3.5-7.8125 7.800781-7.8125h1.367188v82.453125c-1.0625-2.089843-2.445313-4.023437-4.144532-5.726562l-5.023437-5.03125zm0 106 5.019531-5.027344c1.703125-1.703124 3.082031-3.640624 4.148438-5.730468v15.292968c0 4.90625-2.324219 12.171876-5.570313 17.519532l-3.597656 3.871094zm81.277343 16.238282c0 6.589843-3.980468 16.550781-8.511718 21.324218l-41.566406 43.769532h-80.425782c-4.144531 0-7.5 3.355468-7.5 7.5 0 4.140624 3.355469 7.5 7.5 7.5h99.527344v50.101562h-176.027344v-50.101562h40.5c4.140625 0 7.5-3.359376 7.5-7.5 0-4.144532-3.359375-7.5-7.5-7.5h-21.039062v-38.289063c0-6.429687 3.980468-16.054687 8.523437-20.601563l65.097657-65.195312c1.429687-1.433594 3.351562-2.226562 5.402343-2.226562 2.054688 0 3.972657.789062 5.40625 2.222656l16.246094 16.273437c1.433594 1.433594 2.222656 3.363281 2.222656 5.429688 0 2.0625-.789062 3.992187-2.226562 5.429687l-43.226563 43.292969c-3.347656 3.347656-5.1875 7.800781-5.1875 12.539063v18.011718c0 9.78125 7.953125 17.742188 17.726563 17.742188h2.535156c4.90625 0 9.636719-2.0625 12.980469-5.660156l55.992187-60.238282c7.105469-7.644531 12.457031-21.273437 12.457031-31.710937v-136.1875c0-4.332031 3.519532-7.859375 7.84375-7.859375h17.902344c4.324219 0 7.84375 3.527344 7.84375 7.859375v174.074219zm-96.277343-1.214844v14.769531c0 6.0625-3.363281 15.152344-7.519531 20.363281l-9.230469 9.929688c-.515625.554687-1.242188.871094-1.996094.871094h-2.535156c-1.503907 0-2.726563-1.226563-2.726563-2.738282v-18.011718c0-.722657.292969-1.429688.800782-1.941407zm0 0"/><path d="m213.089844 274.722656c4.390625 4.332032 10.21875 6.714844 16.414062 6.714844 6.195313 0 12.023438-2.382812 16.414063-6.714844l79.855469-78.824218c2.945312-2.910157 2.976562-7.65625.066406-10.605469-2.910156-2.945313-7.660156-2.976563-10.605469-.066407l-79.851563 78.820313c-1.566406 1.542969-3.652343 2.394531-5.878906 2.394531-2.226562 0-4.316406-.851562-5.882812-2.394531l-132.089844-130.386719c-13.273438-13.105468-20.585938-30.554687-20.585938-49.128906 0-18.578125 7.3125-36.027344 20.585938-49.132812 13.328125-13.15625 31.054688-20.398438 49.914062-20.398438 18.855469 0 36.578126 7.242188 49.90625 20.398438l32.882813 32.460937c2.917969 2.882813 7.617187 2.882813 10.535156 0l32.886719-32.460937c13.332031-13.152344 31.058594-20.398438 49.90625-20.398438 18.855469 0 36.582031 7.242188 49.910156 20.398438 13.277344 13.105468 20.589844 30.554687 20.589844 49.132812 0 18.574219-7.3125 36.019531-20.589844 49.125l-27.238281 26.890625c-2.949219 2.910156-2.980469 7.660156-.070313 10.605469 2.910157 2.949218 7.660157 2.980468 10.605469.070312l27.242188-26.890625c16.152343-15.945312 25.050781-37.183593 25.050781-59.804687 0-22.617188-8.898438-43.855469-25.050781-59.804688-16.15625-15.941406-37.621094-24.722656-60.449219-24.722656-22.816406 0-44.285156 8.777344-60.441406 24.722656l-27.617188 27.257813-27.617187-27.257813c-16.152344-15.941406-37.617188-24.722656-60.441407-24.722656-22.828124 0-44.296874 8.78125-60.453124 24.722656-16.152344 15.949219-25.046876 37.1875-25.046876 59.808594 0 22.617188 8.894532 43.855469 25.046876 59.804688zm0 0"/><path d="m164.90625 98.9375v13.257812c0 4.144532 3.355469 7.5 7.5 7.5 4.140625 0 7.5-3.355468 7.5-7.5v-13.257812c0-4.140625-3.359375-7.5-7.5-7.5-4.144531 0-7.5 3.359375-7.5 7.5zm0 0"/><path d="m279.101562 98.9375v13.257812c0 4.144532 3.355469 7.5 7.5 7.5 4.140626 0 7.5-3.355468 7.5-7.5v-13.257812c0-4.140625-3.359374-7.5-7.5-7.5-4.144531 0-7.5 3.359375-7.5 7.5zm0 0"/><path d="m256.683594 155.855469c0 14.742187-12.191406 26.738281-27.179688 26.738281-14.988281 0-27.183594-11.996094-27.183594-26.738281 0-4.144531-3.359374-7.5-7.5-7.5-4.144531 0-7.5 3.355469-7.5 7.5 0 23.011719 18.921876 41.738281 42.183594 41.738281 23.257813 0 42.179688-18.726562 42.179688-41.738281 0-4.144531-3.355469-7.5-7.5-7.5-4.140625 0-7.5 3.355469-7.5 7.5zm0 0"/></svg>