<?xml version="1.0" encoding="iso-8859-1"?>
<!-- Generator: Adobe Illustrator 19.0.0, SVG Export Plug-In . SVG Version: 6.00 Build 0)  -->
<svg version="1.1" id="Capa_1" xmlns="http://www.w3.org/2000/svg" xmlns:xlink="http://www.w3.org/1999/xlink" x="0px" y="0px"
	 viewBox="0 0 512 512" style="enable-background:new 0 0 512 512;" xml:space="preserve">
<path style="fill:#B2DCFE;" d="M400.556,0H111.4c-8.285,0-15,6.716-15,15v208.851c0,8.284,6.715,15,15,15h289.155
	c8.284,0,15-6.716,15-15V15C415.556,6.716,408.84,0,400.556,0z"/>
<path style="fill:#FEDB41;" d="M95.334,401.662C42.768,401.662,0,444.432,0,497c0,8.285,6.717,15,15,15h160.668
	c8.283,0,15-6.715,15-15C190.668,444.432,147.9,401.662,95.334,401.662z"/>
<path style="fill:#FEA832;" d="M95.334,401.662V512h80.334c8.283,0,15-6.715,15-15C190.668,444.432,147.9,401.662,95.334,401.662z"
	/>
<path style="fill:#FEB756;" d="M95.334,305.256c-34.85,0-63.199,28.354-63.199,63.203s28.35,63.203,63.199,63.203
	c34.848,0,63.199-28.354,63.199-63.203S130.182,305.256,95.334,305.256z"/>
<path style="fill:#FE8821;" d="M158.533,368.459c0-34.85-28.352-63.203-63.199-63.203v126.406
	C130.182,431.662,158.533,403.309,158.533,368.459z"/>
<path style="fill:#FE73B1;" d="M416.666,401.662c-52.566,0-95.332,42.77-95.332,95.338c0,8.285,6.716,15,15,15H497
	c8.285,0,15-6.715,15-15C512,444.432,469.234,401.662,416.666,401.662z"/>
<path style="fill:#FD0F7F;" d="M416.668,401.662V512H497c8.285,0,15-6.715,15-15C512,444.432,469.234,401.662,416.668,401.662z"/>
<path style="fill:#FEB756;" d="M416.666,305.256c-34.848,0-63.199,28.354-63.199,63.203s28.352,63.203,63.199,63.203
	c34.85,0,63.201-28.354,63.201-63.203S451.516,305.256,416.666,305.256z"/>
<path style="fill:#FE8821;" d="M479.867,368.459c0-34.85-28.352-63.203-63.199-63.203v126.406
	C451.516,431.662,479.867,403.309,479.867,368.459z"/>
<g>
	<path style="fill:#18A7FC;" d="M256,401.662c-52.567,0-95.334,42.77-95.334,95.338c0,8.285,6.715,15,15,15h160.666
		c8.285,0,15-6.715,15-15C351.332,444.432,308.566,401.662,256,401.662z"/>
	<path style="fill:#18A7FC;" d="M256,401.662V512h80.332c8.285,0,15-6.715,15-15C351.332,444.432,308.566,401.662,256,401.662z"/>
</g>
<path style="fill:#FEB756;" d="M256,305.256c-34.85,0-63.201,28.354-63.201,63.203S221.15,431.662,256,431.662
	c34.848,0,63.199-28.354,63.199-63.203S290.848,305.256,256,305.256z"/>
<path style="fill:#FE8821;" d="M319.199,368.459c0-34.85-28.352-63.203-63.199-63.203v126.406
	C290.848,431.662,319.199,403.309,319.199,368.459z"/>
<path style="fill:#86CAFD;" d="M400.556,0H255.979v238.851h144.577c8.284,0,15-6.716,15-15V15C415.556,6.716,408.84,0,400.556,0z"/>
<g>
</g>
<g>
</g>
<g>
</g>
<g>
</g>
<g>
</g>
<g>
</g>
<g>
</g>
<g>
</g>
<g>
</g>
<g>
</g>
<g>
</g>
<g>
</g>
<g>
</g>
<g>
</g>
<g>
</g>
</svg>
